<?xml version="1.0" encoding="utf-8"?>
<!-- Generator: Adobe Illustrator 27.5.0, SVG Export Plug-In . SVG Version: 6.00 Build 0)  -->
<svg version="1.1" xmlns="http://www.w3.org/2000/svg" xmlns:xlink="http://www.w3.org/1999/xlink" x="0px" y="0px"
	 viewBox="0 0 2000 2000" style="enable-background:new 0 0 2000 2000;" xml:space="preserve">
<g id="bg">
	<rect style="fill:#FFFFFF;" width="2000" height="2000"/>
</g>
<g id="shape">
	<g>
		<path style="fill:#05E7FC;" d="M1828.923,577.502c-6.27-13.367-23.516-18.835-37.882-15.461
			c-14.368,3.387-26.127,13.662-35.766,24.839c-9.641,11.19-17.853,23.652-28.645,33.73c-14.345,13.405-38.642,21.354-52.698,7.649
			c-9.013-8.77-9.479-21.784-6.968-34.676c-28.545-1.351-56.077,26.347-59.021,58.609c-6.574,42.701,15.508,81.242,24.298,121.816
			c13.089,44.156-19.174,117.104-66.561,64.299c-22.118-32.912-14.871-74.575-12.842-111.844
			c1.18-33.505,10.012-68.568-1.289-101.118c-9.092-24.245-31.832-47.238-59.194-46.47c-20.168,4.13-34.826,23.253-45.615,39.309
			c-9.899,15.927-17.425,33.177-27.96,48.77c-8.833,13.08-26.836,36.763-45.675,27.359c-21.89-10.949-19.12-36.758-9.208-55.731
			c9.256-17.687,22.826-32.859,33.374-49.756c20.416-32.71,17.966-58.639-24.85-37.43c-22.909,11.326-41.801,33.304-56.739,53.48
			c-16.642,22.451-30.53,46.757-45.771,70.146c-21.293,32.669-46.427,64.558-81.048,82.551c-13.65,7.085-29.447,11.891-44.387,8.185
			c-13.569-3.353-26.299-15.972-25.747-30.653c0.622-16.266,8.657-32.608,16.665-46.421c12.91-22.292,30.041-43.705,48.856-61.352
			c0.8-0.749,1.598-1.486,2.396-2.222c-40.08-9.673-62-50.922-44.894-89.249c7.964-17.844,21.512-32.472,34.097-47.42
			c54.546-64.784,94.642-141.668,116.547-223.475c10.111-37.762,16.324-78.08,5.681-115.695
			c-10.643-37.616-41.832-71.614-80.775-75.032c-33.42-2.933-65.994,17.303-84.468,45.307
			c-18.474,28.004-24.617,62.539-24.795,96.087c-0.177,33.548,5.159,66.854,7.68,100.308c5.455,72.377-2.454,145.717-23.068,215.303
			c-7.586,25.608-17.915,40.772-43.256,51.788c-22.389,9.733-44.754,1.601-55.415-20.498c-8.028-16.643-7.139-36.325-2.601-54.226
			c4.004-15.859,10.651-30.88,16.092-46.297c0.7-2.005,1.389-4.024,2.053-6.048c3.598-11.012,6.342-22.655,4.625-34.117
			c-0.247-1.674-0.617-3.326-1.093-4.969c-2.765-9.603-9.256-18.293-18.583-21.609c-9.805-3.467-20.965-0.438-29.567,5.381
			c-14.572,9.861-19.852,29.603-40.724,22.384c-9.664-3.354-16.65-12.264-19.832-21.983s-3.028-20.212-2.024-30.39
			c2.076-20.98,7.635-41.432,11.108-62.227c3.484-20.78,4.827-42.491-1.406-62.622c-6.233-20.131-21.228-38.517-41.52-44.17
			c-36.282-10.099-73.097,21.824-80.89,55.606c-3.101,13.475-4.15,29.255,0.393,42.347c5.233,15.071,12.206,29.455,18.851,43.922
			c8.241,17.941,16.104,36.288,19.498,55.737c3.773,21.644,1.148,45.285-10.441,64.267c-10.377,16.989-30.174,29.025-50.407,26.891
			c-31.237-3.309-56.64-31.925-65.28-60.111c-3.761-12.269-11.263-26.082-24.069-26.894c-10.742-0.681-19.856,8.934-22.747,19.303
			c-2.891,10.369-1.199,21.373-0.209,32.092c4.02,43.511-0.415,119.471-42.826,144.652c-19.432,11.537-44.907,9.61-64.84-1.016
			c-19.931-10.638-34.898-28.862-45.932-48.574C469.632,492.731,457.13,408,386.36,385.081
			c-40.62-13.155-88.381-0.578-117.255,30.876c-28.874,31.454-37.325,80.115-20.748,119.463
			c16.576,39.348,57.3,67.293,99.977,68.604c19.304,0.593,38.861-3.777,57.795,0.027c26.076,5.239,47.096,25.578,59.688,49.005
			c30.443,56.639,47.618,147.655-24.862,180.692c-8.491,3.87-17.394,6.371-26.535,8.005c-2.71,15.158-5.071,30.54-5.982,45.839
			c-0.936,15.731-2.863,37.723,4.71,52.067c3.023,5.723,8.11,10.718,14.459,12.011c29.43,6.037,36.203-43.535,45.115-60.614
			c6.229-11.919,14.102-23.628,25.745-30.357c11.643-6.73,27.828-7.136,37.539,2.162c7.121,6.807,9.507,17.421,8.547,27.224
			c-0.96,9.803-4.832,19.058-8.662,28.122c-7.457,17.657-14.047,34.218-23.308,50.981c-8.582,15.507-16.24,32.235-10.789,50.215
			c3.172,13.174,14.573,20.473,26.128,25.447c31.779,15.683,23.948,37.979,21.738,66.883c0.006,9.606,9.753,18.672,19.22,17.669
			c27.81-7.02,26.143-52.622,62.703-60.174c26.992-7.975,49.173,24.089,38.989,47.982c-6.842,16.391-23.463,27.841-23.893,46.841
			c-3.363,26.59,24.674,53.276,50.604,40.825c27.919-15.738,46.231-44.15,70.909-63.823c30.341-28.037,91.72-30.555,80.212,25.964
			c-6.35,30.095-36.558,46.832-61.201,61.062c-15.655,7.256-31.193,15.307-42.84,28.409c-16.252,17.1-25.23,44.606,4.651,52.111
			c17.629,5.117,36.477,1.249,54.574,1.898c11.416,0.242,26.042,0.892,32.023,12.25c3.445,8.769-0.095,20.186-7.938,25.434
			c-32.014,17.241-60.57-25.41-94.266,35.855c-8.667,19.109-22.294,53.866-24.39,80.279c9.995-0.132,19.876,1.618,29.04,5.741
			c39.443,17.783,45.612,63.025,41.117,105.845c0.724,0.097,1.465,0.17,2.234,0.234c19.454,0.921,38.338-4.406,56.763-9.922
			c15.031-4.711,32.503-8.38,46.785,0.359c9.984,6.199,15.267,20.249,10.024,31.143c-7.2,14.925-24.92,17.447-38.851,22.563
			c-10.411,3.829-27.652,13.971-16.837,27.039c3.691,4.452,9.156,6.958,14.029,10.059c4.886,3.103,9.625,7.517,10.23,13.269
			c0.859,8.337-7.57,15.014-15.827,16.386c-8.259,1.385-16.673-0.723-25.044-0.688c-15.868,0.059-27.266,11.866-30.166,26.797
			c-6.393,18.821,5.892,43.934,4.326,62.854c5.344-1.564,11.066-4.324,17.178-8.516c11.886-8.157,20.947-19.699,30.131-30.826
			c9.181-11.114,18.983-22.227,31.691-29.02c27.97-14.939,64.195-4.901,87.759,16.316c23.564,21.218,36.908,51.347,47.73,81.146
			c10.822,29.799,20.036,60.713,37.747,87.02c10.478,15.55,25.099,29.882,43.569,33.107c61.752,10.759,42.421-86.501,35.175-118.211
			c-7.033-30.768-16.36-61.198-18.91-92.644c-4.005-49.413,11.937-94.981,59.224-116.356c45.261-20.455,98.282-5.031,134.243,26.565
			c10.2,8.95,18.907,19.561,29.574,27.949c10.682,8.377,24.17,14.528,37.566,12.418c18.424-2.903,31.294-20.583,36.101-38.602
			c6.784-25.398,1.628-52.358-4.737-77.879c-6.352-25.518-13.957-51.386-11.942-77.614c1.983-25.758,16.396-57.426,44.249-60.732
			c34.395-4.068,67.966,4.59,101.62,10.187c13.771,2.288,28.671,4.088,43.357,3.732c15.879-0.387,31.521-3.303,45.276-10.821
			c4.217-2.315,8.015-5.341,11.284-8.882c12.478-13.451,17.505-34.313,10.234-51.342c-4.76-11.146-12.979-20.191-22.487-27.875
			c-5.285-4.299-10.978-8.171-16.701-11.757c-15.985-10.039-33.103-18.958-45.877-32.851c-0.396-0.43-0.78-0.857-1.162-1.298
			c-14.796-16.825-22.148-40.015-19.651-62.291c2.558-22.847,15.415-44.354,34.326-57.422c3.816-2.627,7.862-4.942,11.866-7.329
			c5.122-3.062,10.155-6.23,14.449-10.354c11.083-10.602,10.723-24.576,6.77-38.344c-0.926-3.202-2.214-6.274-3.766-9.266
			c-8.993-17.423-26.317-31.848-25.601-51.254c0.213-5.747,2.056-11.022,5.023-15.704c6.881-10.91,19.862-18.716,32.748-22.249
			c18.434-5.052,38.175-4.457,56.32-10.477c21.494-7.134,39.642-23.775,48.617-44.566c8.964-20.806,10.519-48.871-6.234-64.107
			c-28.012-25.468-57.833-54.312-62.232-91.91c-4.533-38.806,20.194-75.665,50.673-100.092c30.481-24.44,66.981-40.116,99.234-62.15
			c9.141-6.239,18.127-13.2,24.046-22.554C1831.243,599.77,1833.615,587.529,1828.923,577.502z M760.339,671.61
			c-8.705,4.062-17.639,4.421-25.221,2.479c-5.513-1.404-10.532-4.066-13.694-8.531c-3.175-4.466-4.325-10.882-2.26-17.535
			c1.955-6.274,6.564-12.211,11.829-16.821c11.335-9.917,26.224-14.043,36.9-10.232c9.098,3.254,16.481,13.466,14.989,25.207
			C781.646,655.976,768.872,667.64,760.339,671.61z M828.547,584.036c-10.966,8.878-27.648,9.776-39.598,2.275
			c-11.948-7.514-18.375-22.805-15.564-36.628c6.983-34.182,52.895-34.588,65.216-3.889
			C843.843,558.887,839.513,575.158,828.547,584.036z M959.795,1574.222l-0.111,0.208c-13.198,23.844-42.362,18.137-51.723-5.727
			c-3.032-7.229-5.01-15.934-0.595-22.85C927.289,1506.827,978.924,1536.515,959.795,1574.222z"/>
		<path style="fill:#00D5FF;" d="M959.795,1574.222l-0.111,0.208c-13.198,23.844-42.362,18.137-51.723-5.727
			c-3.032-7.229-5.01-15.934-0.595-22.85C927.289,1506.827,978.924,1536.515,959.795,1574.222z"/>
		<path style="fill:#00D5FF;" d="M894.982,1597.713c-7.2,14.925-24.92,17.447-38.851,22.563
			c-10.411,3.829-27.652,13.971-16.837,27.039c3.691,4.452,9.156,6.958,14.029,10.059c4.886,3.103,9.625,7.517,10.23,13.269
			c0.859,8.337-7.57,15.014-15.827,16.386c-8.259,1.385-16.673-0.723-25.044-0.688c-15.868,0.059-27.266,11.866-30.166,26.797
			c-6.393,18.821,5.892,43.934,4.326,62.854c-35.846,10.497-54.027-33.402-49.574-69.432c3.07-24.827,13.142-48.156,20.064-72.201
			c4.737-16.433,9.61-37.148,11.843-58.461c0.724,0.097,1.465,0.17,2.234,0.234c19.454,0.921,38.338-4.406,56.763-9.922
			c15.031-4.711,32.503-8.38,46.785,0.359C894.942,1572.77,900.224,1586.819,894.982,1597.713z"/>
		<path style="fill:#00D5FF;" d="M827.675,1348.179c-32.014,17.241-60.57-25.41-94.266,35.855
			c-8.667,19.109-22.294,53.866-24.39,80.279c-14.58,0.175-29.387,4.366-42.468,11.01c-22.045,11.194-40.179,28.615-57.972,45.785
			l-48.974,47.269c-9.245,8.928-18.503,17.853-27.749,26.781c-4.543,4.377-9.191,8.83-14.665,11.865
			c-0.953,0.541-1.937,1.025-2.941,1.467c-27.826,11.965-33.787-18.763-27.215-38.314c10.303-30.652,30.207-56.965,46.126-85.113
			c15.919-28.148,28.218-60.841,21.156-92.399c-8.885-39.705-45.845-66.803-83.157-83.028
			c-38.699-16.828-80.701-25.94-122.878-26.917c-19.018-0.44-38.633,0.708-57.439,1.719c-20.282,1.09-39.897,8.298-60.324,3.151
			c-9.228-2.311-17.932-9.385-19.113-18.813c-1.508-12.143,9.268-22.119,19.669-28.575c29.865-18.557,64.56-27.382,98.184-37.676
			c33.612-10.296,67.775-22.922,93.296-47.112c25.534-24.188,40.468-62.679,27.778-95.466
			c-16.253-41.997-57.536-62.87-100.26-78.947c-7.565-2.837-15.177-5.536-22.707-8.171c-14.271-4.99-29.042-8.855-42.471-15.828
			c-13.416-6.971-25.702-17.65-30.685-31.93c-8.753-24.999,8.168-53.2,31.364-65.987c23.208-12.772,50.855-13.853,77.338-14.122
			c3.422-0.035,6.871-0.065,10.308-0.111c13.831-0.196,27.762-0.707,41.201-3.1c-2.71,15.158-5.071,30.54-5.982,45.839
			c-0.936,15.731-2.863,37.723,4.71,52.067c3.023,5.723,8.11,10.718,14.459,12.011c29.43,6.037,36.203-43.535,45.115-60.614
			c6.229-11.919,14.102-23.628,25.745-30.357c11.643-6.73,27.828-7.136,37.539,2.162c7.121,6.807,9.507,17.421,8.547,27.224
			c-0.96,9.803-4.832,19.058-8.662,28.122c-7.457,17.657-14.047,34.218-23.308,50.981c-8.582,15.507-16.24,32.235-10.789,50.215
			c3.172,13.174,14.573,20.473,26.128,25.447c31.779,15.683,23.948,37.979,21.738,66.883c0.006,9.606,9.753,18.672,19.22,17.669
			c27.81-7.02,26.143-52.622,62.703-60.174c26.992-7.975,49.173,24.089,38.989,47.982c-6.842,16.391-23.463,27.841-23.893,46.841
			c-3.363,26.59,24.674,53.276,50.604,40.825c27.919-15.738,46.231-44.15,70.909-63.823c30.341-28.037,91.72-30.555,80.212,25.964
			c-6.35,30.095-36.558,46.832-61.201,61.062c-15.655,7.256-31.193,15.307-42.84,28.409c-16.252,17.1-25.23,44.606,4.651,52.111
			c17.629,5.117,36.477,1.249,54.574,1.898c11.416,0.242,26.042,0.892,32.023,12.25
			C839.058,1331.514,835.517,1342.931,827.675,1348.179z"/>
		<path style="fill:#05E7FC;" d="M1020.042,139.966c3.704,13.771,14.774,25.598,28.592,29.125
			c44.858,11.45,52.639-46.648,26.644-71.26C1044.906,69.076,1010.655,105.071,1020.042,139.966z"/>
		<path style="fill:#05E7FC;" d="M617.018,353.592c-2.13,16.064,10.444,32.636,26.489,34.909
			c16.044,2.273,32.727-10.153,35.143-26.177C684.654,322.504,622.314,313.659,617.018,353.592z"/>
		<path style="fill:#00D5FF;" d="M186.032,894.439c26.361,25.217,56.993-25.216,31.58-48.156
			C187.417,819.025,163.947,873.313,186.032,894.439z"/>
		<path style="fill:#00D5FF;" d="M103.745,1052.342c-4.113,33.445,9.804,67.796,33.451,91.802
			c23.109,23.46,56.144,37.807,88.972,35.219c32.828-2.588,64.411-23.379,76.81-53.886c9.159-22.535,7.587-48.6-1.46-71.18
			c-9.047-22.58-25.096-41.87-43.769-57.46c-12.556-10.483-26.652-19.574-42.43-23.886
			C164.149,958.964,109.948,1001.91,103.745,1052.342z"/>
		<path style="fill:#00D5FF;" d="M127.694,1276.554c3.274,6.413,9.065,11.498,15.848,13.916c9.946,3.545,21.859,0.955,29.288-6.549
			c16.616-16.786,3.674-44.057-17.617-48.621C132.955,1230.527,118.288,1258.129,127.694,1276.554z"/>
		<path style="fill:#00D5FF;" d="M172.528,1346.885c-5.506,16.564-0.886,36.646,12.824,47.45c8.598,6.775,20.024,9.539,30.91,8.389
			c24.019-2.539,44.065-25.482,43.36-49.624c-0.592-20.247-19.151-45.849-41.139-46.368
			C199.622,1306.288,177.91,1330.693,172.528,1346.885z"/>
		<path style="fill:#00D5FF;" d="M670.436,1507.325c-10.026,14.31-13.124,35.013-7.725,51.615
			c1.998,6.143,5.065,11.716,8.973,16.241c11.245,13.02,29.682,16.151,44.47,7.553c14.789-8.598,24.992-28.38,24.611-47.717
			C739.907,1491.402,695.042,1472.203,670.436,1507.325z"/>
		<path style="fill:#05E7FC;" d="M1166.342,1685.823c-8.856,10.112-14.631,22.888-16.364,36.218
			c-3.366,25.905,9.657,53.223,31.901,66.92c22.244,13.697,52.5,13.026,74.116-1.642c21.616-14.668,33.417-42.536,28.907-68.267
			C1275.158,1663.453,1203.516,1643.376,1166.342,1685.823z"/>
		<path style="fill:#05E7FC;" d="M1435.627,1615.983c-1.798,43.137,29.716,85.374,71.58,95.934
			c20.551,5.184,43.331,3.042,61.366-8.091c15.166-9.362,26.233-24.518,32.683-41.132c11.314-29.142,8.589-63.383-7.191-90.369
			c-17.697-30.265-55.535-58.211-90.584-43.622C1466.824,1543.96,1437.365,1574.283,1435.627,1615.983z"/>
		<path style="fill:#05E7FC;" d="M1651.495,1443.68c-7.003,24.648,8.144,53.46,32.42,61.664
			c24.275,8.203,53.795-5.513,63.179-29.357c9.285-23.592-4.417-61.043-29.738-69.6
			C1692.038,1397.831,1658.436,1419.249,1651.495,1443.68z"/>
		<path style="fill:#05E7FC;" d="M1805.261,1512.67c7.358,9.756,21.116,14.138,32.761,10.432
			c27.433-8.73,26.474-49.227-0.614-57.372C1810.73,1457.708,1788.475,1490.41,1805.261,1512.67z"/>
		<path style="fill:#05E7FC;" d="M1585.196,1245.663c7.383,15.665,25.968,25.172,42.991,21.992
			c37.724-7.045,41.992-59.247,9.99-77.05C1606.09,1172.756,1570.807,1215.136,1585.196,1245.663z"/>
		<path style="fill:#06F7FF;" d="M1847.781,526.334c-0.228,6.783,2.298,13.646,6.978,18.56c9.751,10.24,28.589,9.434,37.43-1.601
			c8.983-11.211,4.846-34.367-8.509-41.09C1867.631,494.126,1848.325,510.174,1847.781,526.334z"/>
		<path style="fill:#06F7FF;" d="M1671.658,576.562c-1.833,5.382-3.574,11.2-4.695,17.02c-28.545-1.351-56.077,26.347-59.021,58.609
			c-6.574,42.701,15.508,81.242,24.298,121.816c13.089,44.156-19.174,117.104-66.561,64.299
			c-22.118-32.912-14.871-74.575-12.842-111.844c1.18-33.505,10.012-68.568-1.289-101.118c-9.092-24.245-31.832-47.238-59.194-46.47
			c-20.168,4.13-34.826,23.253-45.615,39.309c-9.899,15.927-17.425,33.177-27.96,48.77c-8.833,13.08-26.836,36.763-45.675,27.359
			c-21.89-10.949-19.12-36.758-9.208-55.731c9.256-17.687,22.826-32.859,33.374-49.756c20.416-32.71,17.966-58.639-24.85-37.43
			c-22.909,11.326-41.801,33.304-56.739,53.48c-16.642,22.451-30.53,46.757-45.771,70.146
			c-21.293,32.669-46.427,64.558-81.048,82.551c-13.65,7.085-29.447,11.891-44.387,8.185c-13.569-3.353-26.299-15.972-25.747-30.653
			c0.622-16.266,8.657-32.608,16.665-46.421c12.91-22.292,30.041-43.705,48.856-61.352c0.8-0.749,1.598-1.486,2.396-2.222
			c9.124,2.216,18.622,3.354,27.743,3.855c26.067,1.424,54.289-12.223,63.098-36.787c4.906-13.717,3.768-29.168,1.664-44.687
			c-0.262-1.926-0.538-3.842-0.813-5.771c-1.675-11.562-3.547-23.048-3.465-33.762c0.129-19.534,6.677-36.511,32.381-46.78
			c4.425-1.769,9.073-2.924,13.801-3.473c15.724-1.888,32.283,2.802,44.313,13.165c1.564,1.346,3.049,2.772,4.459,4.266
			c8.815,9.294,14.818,21.117,20.613,32.658c6.984,13.964,12.784,33.646,27.342,41.701c10.491,5.815,23.871,4.415,34.557-1.048
			c10.672-5.466,19.097-14.465,26.601-23.828c23.12-28.882,39.726-62.923,65.593-89.383c17.916-18.325,42.658-32.606,67.488-34.854
			c10.073-0.911,20.176,0.16,29.83,3.75c0.901,0.322,1.796,0.682,2.69,1.055c29.468,12.482,45.502,46.014,46.796,77.996
			C1692.629,515.159,1681.984,546.265,1671.658,576.562z"/>
	</g>
</g>
</svg>
