<svg xmlns="http://www.w3.org/2000/svg" viewBox="0 0 440.26 173.63"><defs><style>.a{fill-rule:evenodd;}</style></defs><title>wix-company</title><path class="a" d="M0,.2S17.34-2,28.9,8.32C36,14.7,38.1,24.85,38.1,24.85l23.61,92.72L81.34,41.68c1.91-8.07,5.35-18,10.81-24.79,6.95-8.59,21.07-9.13,22.57-9.13s15.62.54,22.57,9.13c5.45,6.75,8.9,16.72,10.81,24.79l19.63,75.89,23.6-92.72s2.08-10.16,9.21-16.53C212.1-2,229.43.2,229.43.2l-45.2,173.28s-14.9,1.09-22.36-2.76c-9.8-5.06-14.46-9-20.4-32.55l-.61-2.45c-2.16-8.68-5.48-22.26-8.83-36l-1-4.13-1-4.12c-4.83-19.83-9.28-38.09-10-40.41s-1.46-7.36-5.3-7.36-4.62,5.19-5.31,7.36c-.81,2.55-6.14,24.52-11.51,46.59l-1,4.14q-4.11,17-8.31,34L88,138.17C82,161.74,77.37,165.66,67.57,170.72c-7.46,3.85-22.37,2.76-22.37,2.76ZM272.83,31v6.17h0V140.28c-.09,21.16-2.31,25.85-12,30.73-7.52,3.78-19,2.35-19,2.35V57.87c0-5.8,2-9.6,9.16-13,4.3-2,8.31-3.6,12.48-5.91A27.56,27.56,0,0,0,272.83,31ZM285.24.78s24-4.18,35.95,6.86c7.61,7.07,16.13,19.78,16.13,19.78l21,30.79c1,1.6,2.34,3.35,4.47,3.35s3.46-1.75,4.47-3.35l21-30.79s8.52-12.71,16.14-19.78c11.9-11,35.94-6.86,35.94-6.86l-57,86.33,56.81,86.07-.2,0c-2.36.28-25,2.62-36.31-7.85-7.62-7.06-15.42-18.55-15.42-18.55l-21-30.79c-1-1.61-2.35-3.34-4.47-3.34s-3.45,1.73-4.47,3.34l-21,30.79s-7.38,11.49-15,18.55c-11.91,11.06-36.94,7.82-36.94,7.82L342.2,87.12ZM272.59,0h.25c0,11.84-1.15,18.86-8.6,24.33a48,48,0,0,1-11.32,6.15,34.52,34.52,0,0,0-11.09,6.73c0-21.56,3.29-29.36,12.1-34C259.29.42,268,0,271.41,0Z"/></svg>